<svg width="269" height="45" viewBox="0 0 269 45" fill="none" xmlns="http://www.w3.org/2000/svg">
<rect x="1.30005" y="0.5" width="189.4" height="44" rx="22" fill="#1F1E1E"/>
<rect x="1.30005" y="0.5" width="189.4" height="44" rx="22" stroke="#2F2F2F"/>
<path d="M46.4001 16L35.2001 22.4L46.4001 28.8V16Z" fill="white"/>
<path d="M36 16L24.8 22.4L36 28.8V16Z" fill="white"/>
<path d="M24.8 16V28.8" stroke="white" stroke-width="1.6"/>
<path d="M73.6001 16L62.4001 22.4L73.6001 28.8V16Z" fill="white"/>
<rect x="89.6001" y="16" width="12.8" height="12.8" fill="white"/>
<path d="M118.4 16L129.6 22.4L118.4 28.8V16Z" fill="#FFC926"/>
<path d="M145.6 16L156.8 22.4L145.6 28.8V16Z" fill="white"/>
<path d="M156 16L167.2 22.4L156 28.8V16Z" fill="white"/>
<path d="M167.2 16V28.8" stroke="white" stroke-width="1.6"/>
<rect x="207.5" y="0.5" width="61" height="44" rx="22" fill="#1F1E1E"/>
<rect x="207.5" y="0.5" width="61" height="44" rx="22" stroke="#2F2F2F"/>
<path d="M223.546 27.2393C222.785 27.2393 222.133 27.0296 221.591 26.6104C221.049 26.1911 220.632 25.5964 220.34 24.8262C220.048 24.0514 219.902 23.1331 219.902 22.0713V22.0576C219.902 20.9958 220.048 20.0798 220.34 19.3096C220.632 18.5394 221.049 17.9447 221.591 17.5254C222.133 17.1061 222.785 16.8965 223.546 16.8965C224.307 16.8965 224.959 17.1061 225.501 17.5254C226.043 17.9447 226.46 18.5394 226.752 19.3096C227.048 20.0798 227.196 20.9958 227.196 22.0576V22.0713C227.196 23.1331 227.048 24.0514 226.752 24.8262C226.46 25.5964 226.043 26.1911 225.501 26.6104C224.959 27.0296 224.307 27.2393 223.546 27.2393ZM223.546 25.9609C223.988 25.9609 224.364 25.8037 224.674 25.4893C224.988 25.1748 225.228 24.7282 225.392 24.1494C225.56 23.5661 225.645 22.8734 225.645 22.0713V22.0576C225.645 21.2555 225.56 20.5651 225.392 19.9863C225.228 19.4076 224.988 18.9632 224.674 18.6533C224.364 18.3389 223.988 18.1816 223.546 18.1816C223.108 18.1816 222.732 18.3389 222.418 18.6533C222.108 18.9632 221.869 19.4076 221.7 19.9863C221.536 20.5651 221.454 21.2555 221.454 22.0576V22.0713C221.454 22.8734 221.536 23.5661 221.7 24.1494C221.869 24.7282 222.108 25.1748 222.418 25.4893C222.732 25.8037 223.108 25.9609 223.546 25.9609ZM229.698 27.1094C229.416 27.1094 229.176 27.0114 228.98 26.8154C228.789 26.6195 228.693 26.3848 228.693 26.1113C228.693 25.8288 228.789 25.5918 228.98 25.4004C229.176 25.209 229.416 25.1133 229.698 25.1133C229.985 25.1133 230.225 25.209 230.416 25.4004C230.607 25.5918 230.703 25.8288 230.703 26.1113C230.703 26.3848 230.607 26.6195 230.416 26.8154C230.225 27.0114 229.985 27.1094 229.698 27.1094ZM232.747 27V25.9541L236.028 22.5225C236.466 22.0667 236.805 21.693 237.047 21.4014C237.288 21.1051 237.457 20.8408 237.553 20.6084C237.653 20.376 237.703 20.1253 237.703 19.8564V19.8428C237.703 19.5192 237.632 19.2321 237.491 18.9814C237.354 18.7262 237.156 18.528 236.896 18.3867C236.637 18.2409 236.327 18.168 235.967 18.168C235.602 18.168 235.281 18.2432 235.003 18.3936C234.725 18.5439 234.508 18.7536 234.354 19.0225C234.199 19.2913 234.121 19.6058 234.121 19.9658V19.9932L232.672 19.9863L232.665 19.9727C232.67 19.3711 232.815 18.8402 233.103 18.3799C233.39 17.915 233.788 17.5527 234.299 17.293C234.809 17.0286 235.395 16.8965 236.056 16.8965C236.666 16.8965 237.211 17.0173 237.689 17.2588C238.173 17.4958 238.553 17.8262 238.831 18.25C239.109 18.6693 239.248 19.1501 239.248 19.6924V19.7129C239.248 20.0866 239.18 20.4489 239.043 20.7998C238.906 21.1507 238.669 21.5358 238.332 21.9551C237.999 22.3743 237.535 22.8802 236.938 23.4727L234.449 25.9541L234.846 25.2637V25.9541L234.456 25.6875H239.405V27H232.747ZM244.826 27.2393C244.184 27.2393 243.614 27.1162 243.117 26.8701C242.62 26.624 242.224 26.2891 241.928 25.8652C241.632 25.4368 241.458 24.9583 241.408 24.4297L241.401 24.3408H242.844L242.851 24.3955C242.896 24.6826 243.006 24.9447 243.179 25.1816C243.356 25.4186 243.589 25.6055 243.876 25.7422C244.163 25.8789 244.484 25.9473 244.84 25.9473C245.245 25.9473 245.603 25.8584 245.913 25.6807C246.223 25.4984 246.465 25.25 246.638 24.9355C246.815 24.6211 246.904 24.2588 246.904 23.8486V23.835C246.904 23.4294 246.815 23.0693 246.638 22.7549C246.46 22.4404 246.218 22.1966 245.913 22.0234C245.608 21.8457 245.255 21.7568 244.854 21.7568C244.557 21.7568 244.282 21.8024 244.026 21.8936C243.776 21.9801 243.552 22.1123 243.356 22.29C243.27 22.3721 243.188 22.4609 243.11 22.5566C243.033 22.6478 242.965 22.7503 242.905 22.8643H241.579L242.071 17.1357H247.813V18.4346H243.281L242.98 21.5791H243.09C243.231 21.3558 243.407 21.1667 243.616 21.0117C243.83 20.8568 244.072 20.7383 244.341 20.6562C244.61 20.5742 244.895 20.5332 245.195 20.5332C245.815 20.5332 246.362 20.6745 246.836 20.957C247.314 21.2396 247.69 21.627 247.964 22.1191C248.237 22.6113 248.374 23.1742 248.374 23.8076V23.8213C248.374 24.4912 248.221 25.0837 247.916 25.5986C247.615 26.1136 247.198 26.5169 246.665 26.8086C246.136 27.0957 245.523 27.2393 244.826 27.2393ZM249.721 27L252.188 23.3018L249.7 19.5762H251.423L253.022 22.2285H253.139L254.718 19.5762H256.358L253.911 23.2402L256.386 27H254.697L253.077 24.3271H252.961L251.341 27H249.721Z" fill="white"/>
</svg>
